<?xml version="1.0" encoding="UTF-8"?>
<svg id="_レイヤー_2" data-name="レイヤー 2" xmlns="http://www.w3.org/2000/svg" viewBox="0 0 188.86 34.59">
  <defs>
    <style>
      .cls-1 {
        fill: #fff;
      }
    </style>
  </defs>
  <g id="_ファーストビュー" data-name="ファーストビュー">
    <g id="white">
      <g>
        <path class="cls-1" d="M26.27,17.77h8.75c0-.12,0-.24,0-.37,0-7.37-5.97-13.34-13.34-13.34-3.03,0-5.83,1.02-8.07,2.72l.94,1.63,4.85,8.41h-9.71s-1.33,0-1.33,0c0,.19-.01.39-.01.58,0,7.37,5.97,13.34,13.34,13.34,1.82,0,3.56-.37,5.14-1.03-.36-.9-.56-1.87-.56-2.9v-9.04Z"/>
        <path class="cls-1" d="M13.62,6.78L9.71,0l-4.85,8.41L0,16.81h8.37c.18-4.09,2.2-7.71,5.25-10.03Z"/>
        <path class="cls-1" d="M35.03,17.77c-.15,5.39-3.48,9.97-8.19,11.94,1.15,2.86,3.94,4.88,7.21,4.88,4.3,0,7.78-3.48,7.78-7.78v-9.04h-6.81Z"/>
      </g>
      <g>
        <path class="cls-1" d="M60.34,15.21c.39,2.45,1.37,4.41,3.02,6.04,1.39,1.37,4.15,3.21,5.88,3.97.39.15.46.2.46.28,0,.06-.04.09-.37.17-.46.11-1.17.48-1.58.8-.35.26-.59.56-.85,1.06-.13.22-.33.37-.54.37-.39,0-1.15-.43-2.02-1.15-2.95-2.48-4.1-5.62-4.23-11.55h-.15c-.07,4.06-.59,6.32-1.91,8.1-1.3,1.78-3.32,3.06-6.3,4.04-1,.3-2.11.59-2.39.59-.11,0-.2-.09-.2-.17,0-.13.02-.15.5-.3,2.76-.87,5.06-2.93,6.19-5.28.83-1.69,1.09-3.43,1.13-6.97h-4.84c-.59,0-1.28.04-2.19.09-.39-.63-.41-.67-.41-.72,0-.06.06-.09.13-.09h.06c.48.09,1.04.13,1.91.13h5.34c0-.35,0-1.19-.02-2.54-.02-2.34-.02-3.52-.02-3.56,0-.5.02-.5.11-.5,1.17,0,2.69.24,3.37.46.3.11.48.28.48.5,0,.24-.11.37-.69.69q0,.43-.02,1.19c0,.63-.04,1.89-.11,3.76h4.41c1.15-1.67,1.74-2.34,2.04-2.34.69,0,2.67,1.82,2.67,2.48,0,.26-.26.46-.59.46h-8.25Z"/>
        <path class="cls-1" d="M90.28,17.7q1.24-1.56,1.5-1.56c.52,0,1.87,1.24,1.87,1.69,0,.24-.22.37-.69.37h-1.3c.06.06.09.11.09.17,0,.15-.15.3-.46.5v.52q0,.2.09,3.34c.02,1.09.04,1.82.04,2.04,0,1.56-.06,1.98-.41,2.39-.46.59-1.56,1.02-2.58,1.02-.65,0-.74-.09-.98-.69-.2-.54-.72-.93-1.63-1.3-.24-.11-.3-.13-.3-.22,0-.06.04-.09.09-.09.09,0,.26.02.39.02l.96.02c.59.02,1.11-.09,1.3-.2.5-.33.5-.37.5-4.39,0-.96,0-1.15-.02-1.93,0-.35-.02-.67-.04-.91-.02-.15-.04-.22-.09-.3h-7.12c0,.61.02,1.19.02,1.8l.02,1.52c.02,1.76.02,2.26.02,2.41,0,.5-.67.83-1.69.83-.56,0-.67-.11-.67-.61,0-.17.02-.54.04-1.09h-3.52l.02,1.17c0,.61-.04.76-.26.93-.26.17-.83.3-1.39.3-.63,0-.78-.11-.78-.59,0-.13.02-1.15.04-2.06.06-2.28.09-4.17.09-8.9,0-.85,0-1.35-.02-2.34,0-.26,0-.28.11-.28.26,0,.96.11,1.19.17,1.06.28,1.39.39,1.39.74,0,.09-.04.2-.09.24q-.22.2-.28.33c-.04,1.22-.04,1.95-.04,2.32l.02,4.15-.02,3.34h.76v-2.61c0-6.15-.02-7.4-.13-10.94l-.02-.52c0-.11.02-.13.13-.13.17,0,.96.09,1.56.17.91.13,1.28.33,1.28.65,0,.17-.07.28-.28.48-.2.15-.24.22-.3.46q-.06,3.82-.09,12.44h.69c.04-4.1.04-4,.04-4.69-.02-4.34-.04-5.52-.04-6.21,0-.15.04-.15.17-.15.15,0,1.02.17,1.41.28.98.28,1.15.37,1.15.65,0,.17-.15.33-.52.56-.02,2-.02,2.8-.02,4,.8-.33,1.45-.87,2.11-1.82.59-.85.91-1.87,1.11-3.39h-2.15c-.3,0-.61,0-.91.04-.33-.41-.35-.46-.35-.5,0-.09.07-.15.17-.15.5.06,1.13.11,1.43.11h1.85c.09-.72.11-1.13.11-3.02v-.09c0-.33,0-.35.13-.35.24,0,1.58.17,2.24.28.72.13,1.04.33,1.04.65,0,.15-.06.28-.2.37q-.35.2-.43.33c-.02.11-.04.28-.09.61l-.15,1.22h1.69c.22-.26.37-.46.46-.59.78-1.04.89-1.13,1.17-1.13.56,0,2,1.3,2,1.82,0,.24-.24.39-.61.39h-4.78c-.04.3-.11.61-.22.91,1.04.17,1.78.37,2.43.63,1.06.41,1.78,1.22,1.78,2,0,.89-.67,1.5-1.63,1.5-.65,0-.89-.2-1.09-.85-.35-1.11-.76-1.91-1.61-2.97-.59,1.65-1.63,2.69-3.52,3.56-.72.33-1.46.54-2,.56v.54h8.82ZM85.61,19.9c.35-.5.56-.72.78-.72.43,0,1.69.93,1.69,1.26,0,.17-.09.24-.22.3-.04.02-.09.07-.13.15l.02,1.39c.02.82.04,1.3.04,1.56,0,.48-.54.8-1.41.8-.61,0-.78-.11-.78-.46v-.35h-1.11v.87c0,.41-.04.52-.28.65-.28.17-.76.3-1.13.3-.5,0-.69-.11-.69-.39,0-.33.02-.52.04-1.17.02-.72.04-1.45.04-2.17v-.61c0-.2,0-1,.02-1.95,0-.11.02-.15.09-.15.15,0,1.19.26,1.58.41.22.07.3.13.41.26h1.02ZM84.66,20.35c-.11,0-.15.09-.17.26v2.76h1.13v-3.02h-.96Z"/>
        <path class="cls-1" d="M113.23,11.02c1.13-1.5,1.35-1.72,1.65-1.72s.83.33,1.3.72c.48.43.91.93.91,1.22,0,.2-.2.3-.54.3h-5.17c.02,1.22.02,1.48.02,1.54,0,.48-.11.72-.39.87-.39.22-1.04.37-1.65.37-.48,0-.8-.11-.89-.3-.02-.04-.04-.13-.04-.65,0-.56.04-1.11.04-1.82h-3.34q.02,1.43.04,1.91c0,.39-.13.56-.54.74-.37.15-.89.24-1.43.24-.72,0-.91-.15-.91-.67,0-.48.04-1.45.04-2.21h-2.5c-.8,0-1.63.02-2.43.11-.35-.48-.37-.52-.37-.56,0-.09.07-.15.17-.15.61.04,1.37.09,1.76.09h3.37q0-1.98-.02-2.82,0-.22.2-.22c.39,0,1.35.11,2.11.24.78.13,1.04.28,1.04.56,0,.22-.15.39-.5.56l-.02,1.67h3.34v-.89c0-.61-.02-1.13-.04-1.93,0-.17.04-.22.17-.22.65,0,1.98.2,2.61.35.43.09.65.28.65.5s-.15.35-.48.54l-.02.89v.76h1.87ZM112.56,19.03c.43-.59.78-1.04,1.3-1.65.26-.3.39-.39.56-.39.67,0,2.48,1.58,2.48,2.17,0,.22-.24.39-.54.39h-9.1q.11.04.26.11c.17.09.39.24.39.46,0,.28-.24.39-.72.5-1.3,1.95-1.74,2.52-2.87,3.93,2.52-.04,4.67-.11,6.99-.37-.46-.74-1.5-1.95-2.17-2.52-.09-.06-.11-.11-.11-.15,0-.07.07-.11.15-.11q.2,0,2,.54c1.26.37,2.5,1.06,3.28,1.78.85.76,1.22,1.56,1.22,2.43,0,.98-.83,1.72-1.89,1.72-.3,0-.61-.13-.8-.33-.3-.26-.41-.5-.8-1.58-.13-.35-.33-.78-.52-1.13-2.93,1.09-6.56,2.11-11.01,2.76-.41.17-.78.22-1.09.22-.37,0-.65-.41-1.26-2.35-.15-.46-.24-.83-.24-.93,0-.09.06-.13.22-.13.39,0,2.71.13,4.32.17.59-1.82,1.15-4.02,1.28-5.02h-4.91c-.5,0-1.04.02-1.54.06-.39-.43-.41-.48-.41-.52,0-.09.07-.15.17-.15.37.04.87.09,1.11.09h14.24ZM110.63,15.38q.24-.28.96-1.24c.35-.43.52-.59.76-.59.26,0,.65.26,1.35.85.61.52.85.85.85,1.13,0,.26-.22.37-.69.37h-12.4c-.3,0-.63,0-.93.04-.35-.39-.37-.43-.37-.48,0-.09.07-.15.17-.15.41.04.98.07,1.24.07h9.08Z"/>
        <path class="cls-1" d="M125.48,26.3c0,.78-.02.87-.24,1.09-.28.26-1.09.48-1.69.48s-.85-.15-.85-.59c0-.04,0-.11.02-.46,0-.17.06-1.74.2-5.1,0-.24,0-.39.04-2.52-.87.74-2.34,1.65-2.65,1.65-.04,0-.06-.02-.06-.07s.02-.09.09-.15c.24-.24,1.11-1.39,1.39-1.85.93-1.48,1.87-3.56,2.5-5.52.09-.26.11-.3.17-.3.2,0,1.39.61,2.15,1.06.48.3.65.5.65.74,0,.22-.15.33-.54.46-.5.63-1.09,1.32-1.26,1.48.35.15.54.3.54.46q0,.13-.48.46l-.02,2.48.04,6.21ZM126.3,11.08c-1.72,1.26-2.82,1.87-4.8,2.67-.35.15-.63.22-.74.22-.09,0-.13-.02-.13-.09,0-.09.02-.11.26-.33,1.11-.96,2.5-3.06,3.32-5.06,1.76.56,3.04,1.39,3.04,1.93,0,.37-.26.54-.96.65ZM127.02,15.6c1.78.24,2.58.52,2.58.87,0,.13-.11.28-.35.46-.02,2.95-.15,3.84-.78,5.12-.5,1-1,1.61-1.98,2.45-.33.28-.65.5-.76.5-.06,0-.11-.02-.11-.09s.02-.11.11-.2c.28-.28.56-.76.74-1.26.41-1.15.54-2.63.54-5.97v-1.89ZM132.62,13.45c.24-.26.35-.37.56-.63.61-.72.69-.78.91-.78.54,0,1.8,1.11,1.8,1.59,0,.2-.17.33-.46.33h-3.39c0,3.15.09,8.45.17,10.53.02.74.04,1.52.04,1.74,0,.37-.09.56-.33.76-.35.24-1.06.43-1.65.43-.54,0-.8-.2-.8-.61l.02-.48q.13-3.1.15-3.91c0-1.04.02-1.48.04-2,.04-1.24.06-2,.06-2.19v-4.28h-2.13c-.28,0-.61.02-.89.06-.35-.37-.37-.41-.37-.46,0-.09.07-.15.17-.15.28.02.65.04.83.04h2.39q-.02-1.37-.09-3.02l-.02-.91-.02-1.11c0-.13.02-.15.15-.15.24,0,1.56.2,2.11.33.52.11.78.3.78.54,0,.11-.02.22-.11.3-.07.07-.17.15-.26.22q-.09.06-.17.2c-.04,1.67-.04,2.19-.06,3.6h.54ZM134.03,23.46c-.63,0-1.13-.46-1.13-1.04,0-.13,0-.28.04-.52.11-.85.17-1.65.17-2.17,0-1.32-.33-3.19-.69-3.84-.02-.04-.04-.09-.04-.13,0-.07.02-.11.13-.11.09,0,.13.04.41.26.3.24,1.22,1.32,1.61,1.89.8,1.17,1.09,2.08,1.09,3.3,0,1.54-.54,2.37-1.59,2.37ZM133.06,10.95c0-.41-.11-.89-.3-1.19-.04-.06-.07-.13-.07-.17,0-.06.07-.11.15-.11,1.45,0,2.28.46,2.28,1.26,0,.63-.56,1.13-1.26,1.13-.54,0-.8-.17-.8-.56v-.35ZM137.88,15.66c.89-1.41,1.19-1.76,1.48-1.76.59,0,1.95,1.35,1.95,1.89,0,.26-.24.41-.69.41h-1.93c.09.02.2.07.3.11.46.2.56.26.56.46,0,.17-.09.24-.46.43v.96c0,.24.04,1.65.11,4.93.02.54.02,1.02.02,1.45,0,.24.02.56.02.83,0,1.06-.3,1.72-1.02,2.13-.56.33-1.11.48-1.8.48-.41,0-.67-.11-.8-.33-.04-.06-.09-.26-.17-.65-.13-.46-.65-.93-1.46-1.37-.13-.07-.13-.09-.13-.13,0-.06.04-.11.09-.11.24.02.65.06.89.06.56,0,1.09-.11,1.3-.3.3-.26.35-.54.35-3.13,0-2.74-.04-5.32-.06-5.82h-1.48c-.26,0-.56,0-.83.04-.37-.39-.39-.43-.39-.48,0-.09.06-.15.17-.15.24.02.59.04.74.04h3.24ZM137.33,10.47c.37-.48.59-.76.85-1.11.24-.35.43-.52.63-.52.52,0,1.82,1.28,1.82,1.78,0,.26-.17.39-.52.39h-3.56c-.28,0-.56,0-.85.04-.33-.39-.35-.43-.35-.48,0-.09.06-.15.17-.15.26.02.61.04.76.04h1.04Z"/>
        <path class="cls-1" d="M155.88,15.21c.39,2.45,1.37,4.41,3.02,6.04,1.39,1.37,4.15,3.21,5.88,3.97.39.15.46.2.46.28,0,.06-.04.09-.37.17-.46.11-1.17.48-1.58.8-.35.26-.59.56-.85,1.06-.13.22-.33.37-.54.37-.39,0-1.15-.43-2.02-1.15-2.95-2.48-4.1-5.62-4.23-11.55h-.15c-.07,4.06-.59,6.32-1.91,8.1-1.3,1.78-3.32,3.06-6.3,4.04-1,.3-2.11.59-2.39.59-.11,0-.2-.09-.2-.17,0-.13.02-.15.5-.3,2.76-.87,5.06-2.93,6.19-5.28.83-1.69,1.09-3.43,1.13-6.97h-4.84c-.59,0-1.28.04-2.19.09-.39-.63-.41-.67-.41-.72,0-.06.06-.09.13-.09h.06c.48.09,1.04.13,1.91.13h5.34c0-.35,0-1.19-.02-2.54-.02-2.34-.02-3.52-.02-3.56,0-.5.02-.5.11-.5,1.17,0,2.69.24,3.37.46.3.11.48.28.48.5,0,.24-.11.37-.69.69q0,.43-.02,1.19c0,.63-.04,1.89-.11,3.76h4.41c1.15-1.67,1.74-2.34,2.04-2.34.69,0,2.67,1.82,2.67,2.48,0,.26-.26.46-.59.46h-8.25Z"/>
        <path class="cls-1" d="M184.52,13.17c.96-1.09,1.19-1.28,1.54-1.28.43,0,1.19.54,2.04,1.48.48.52.63.8.63,1.15,0,.39-.33.69-.78.72-.11,0-.61.04-1.19.09-.63.04-1.3.24-2.37.74-.22.09-.33.13-.41.13s-.15-.07-.15-.15.06-.22.26-.59c.24-.48.54-1.17.74-1.78h-12.62c.09.37.13.67.13,1,0,1.48-.89,2.5-2.17,2.5-.93,0-1.58-.59-1.58-1.41,0-.41.17-.8.46-1.06q.11-.11.8-.56c.74-.5,1.26-1.37,1.3-2.17.02-.17.07-.24.17-.24.17,0,.46.52.76,1.46h8.42c.52-1.46,1.32-4.21,1.43-4.93.02-.13.06-.17.15-.17.13,0,1.17.28,1.82.52,1.35.46,1.76.72,1.76,1.13,0,.39-.41.65-1.13.76q-1.65,1.52-3.06,2.69h3.04ZM184.28,20.72c.61-.8.74-.96,1.06-1.39.43-.56.78-.87,1.06-.87.33,0,1,.46,1.65,1.13.56.56.8.96.8,1.3,0,.22-.26.39-.65.39h-8.42l.09,4.65c0,.72-.26,1.3-.76,1.67-.61.43-1.52.67-2.45.67-.65,0-.91-.15-1-.59-.2-.87-.67-1.41-1.82-2-.09-.04-.13-.06-.13-.13s.04-.11.13-.11c.07,0,.11,0,.26.02.37.04,1.43.11,1.76.11.46,0,.69-.09.87-.46.06-.17.11-.46.11-1.24v-2.61h-6.36c-.5,0-1,.02-1.5.09-.35-.5-.37-.54-.37-.59,0-.09.07-.15.17-.15.48.04,1.09.09,1.39.09h6.67c-.04-1.56-.06-1.91-.06-2.13,0-.2.06-.28.2-.28.22,0,1.43.22,1.85.35.67-.96,1.13-1.69,1.37-2.24h-5.8c-.33,0-.69,0-1.02.04-.35-.41-.37-.46-.37-.5,0-.09.06-.15.17-.15.41.04.98.09,1.24.09h5.6c.83-1.02,1.04-1.19,1.26-1.19.33,0,.63.17,1.61.89.74.56,1,.87,1,1.28,0,.39-.24.54-.85.61-.48.02-.74.13-1.19.39-.26.15-1.5.8-2.04,1.09.3.11.43.26.43.46,0,.06-.04.17-.11.22-.11.09-.15.11-.35.24v.85h4.52ZM174.59,12.84c-.5,0-.98-.22-1.11-.5-.09-.2-.13-.41-.22-1.15-.09-.91-.5-1.87-1.04-2.43-.07-.07-.09-.11-.09-.15,0-.06.09-.11.17-.11.26,0,1,.15,1.48.3,1.54.48,2.37,1.37,2.37,2.54,0,.89-.63,1.5-1.56,1.5ZM178.48,12.69c-.54,0-.96-.24-1.13-.61-.09-.17-.09-.24-.11-.96-.04-1.13-.33-2.06-.89-2.87-.07-.09-.09-.13-.09-.17s.06-.09.13-.09c.54,0,1.8.41,2.37.78.87.54,1.39,1.39,1.39,2.21,0,.98-.69,1.69-1.67,1.69Z"/>
      </g>
    </g>
  </g>
</svg>